<svg xmlns="http://www.w3.org/2000/svg" xmlns:xlink="http://www.w3.org/1999/xlink" id="Layer_1" x="0px" y="0px" viewBox="0 0 3786.3 800" style="enable-background:new 0 0 3786.3 800;" xml:space="preserve"><style type="text/css">	.st0{opacity:0.75;fill-rule:evenodd;clip-rule:evenodd;fill:#C9E2C5;}	.st1{fill:#508C46;}	.st2{fill:#67AD5C;}	.st3{fill:#FFFFFF;}</style><g id="&#x670D;&#x52A1;&#x4E0B;&#x5355;">	<circle id="_x39_" class="st0" cx="420" cy="400" r="400"></circle>	<path id="_x38_" class="st1" d="M547.7,458.4v-99.3c0-72.2-57.3-131-127.7-131s-127.7,58.8-127.7,131v99.2  c0,9.2-7.2,16.6-16.1,16.6s-16.1-7.4-16.1-16.6v-99.2c0-43.7,16.7-84.9,47-115.9c30.3-31.1,70.5-48.2,113-48.2s82.7,17.1,113,48.2  s47,72.3,47,115.9v99.2c0,9.2-7.3,16.6-16.1,16.6C554.9,475,547.7,467.6,547.7,458.4z"></path>	<path id="_x37_" class="st2" d="M690,380v315.1C618.8,760.3,524.1,800,420,800s-198.8-39.7-270-104.9V380L690,380L690,380z"></path>	<polygon id="_x36_" class="st1" points="180,290 250.4,290 250.4,380 180,380  "></polygon>	<polygon id="_x35_" class="st1" points="599.6,290 670,290 670,380 599.6,380  "></polygon>	<path id="_x34_" class="st3" d="M628.1,333.9c-0.1-13.7,12.9-30.2,34.6-43.9l-245.3,0.1L176,290c21.4,13.6,34.8,30.1,34.7,43.9  c-0.1,21.9-26.6,36.8-60.7,46.1h540C655.2,370.7,628.3,355.8,628.1,333.9z"></path>	<path id="_x33_" class="st3" d="M257.9,544.5c11.5,6.6,25.6,6.6,37,0c11.5-6.6,18.5-18.9,18.5-32c0-20.5-16.6-37-37-37  s-37,16.6-37,37C239.4,525.7,246.4,537.9,257.9,544.5z"></path>	<path id="_x33__00000079471073912174278210000001140456206680441227_" class="st3" d="M545.1,544.5c11.5,6.6,25.6,6.6,37,0  c11.5-6.6,18.5-18.9,18.5-32c0-20.5-16.6-37-37-37s-37,16.6-37,37C526.5,525.7,533.6,538,545.1,544.5z"></path>	<path id="_x31_" class="st1" d="M547.7,513.4v-99.3c0-72.2-57.3-131-127.7-131s-127.7,58.8-127.7,131v99.3  c0,9.2-7.2,16.6-16.1,16.6s-16.1-7.4-16.1-16.6v-99.3c0-43.7,16.7-84.9,47-115.9c30.3-31.1,70.5-48.2,113-48.2s82.7,17.1,113,48.2  s47,72.3,47,115.9v99.3c0,9.1-7.3,16.6-16.1,16.6C554.9,530,547.7,522.6,547.7,513.4z"></path>	<g>		<path d="M1319.5,483.5c0,31.4-11.4,56.1-34.2,74.3c-22.8,18.2-54.3,27.2-94.6,27.2c-39,0-72-6.6-99.1-19.8v-59.4   c14.9,6.6,31.2,12.6,49,18.1c17.8,5.4,36,8.2,54.5,8.2c21.1,0,36.6-4.1,46.6-12.4c9.9-8.2,14.9-19.1,14.9-32.7   c0-14.9-6.3-26.6-18.8-35.2c-12.6-8.6-30.9-18-55-28.2c-14.5-6.3-28.4-13.7-41.6-22.3c-13.2-8.6-24.1-19.5-32.7-32.7   c-8.6-13.2-12.9-30-12.9-50.5c0-30.4,10.6-54.1,31.9-71.1s49.8-25.5,85.4-25.5c18.8,0,36.4,2,52.7,5.9c16.3,4,32.8,9.6,49.3,16.8   l-20.3,51c-14.9-6.3-29-11.2-42.3-14.9c-13.4-3.6-27.2-5.4-41.4-5.4c-17.2,0-30.2,3.9-39.1,11.6c-8.9,7.8-13.4,17.8-13.4,30   c0,9.9,2.5,18.2,7.4,24.8c5,6.6,12.6,12.7,23,18.3c10.4,5.6,23.8,12.1,40.4,19.3c18.8,8.3,35,16.8,48.5,25.8   c13.5,8.9,23.9,19.6,31,32.2C1316,449.5,1319.5,465,1319.5,483.5z"></path>		<path d="M1488.4,306.7c36,0,64.5,10.7,85.4,32.2c21,21.5,31.4,51.3,31.4,89.6v31.7H1428c0.7,24.4,7.4,43.3,20.3,56.7   c12.9,13.4,30.7,20.1,53.5,20.1c17.2,0,32.7-1.7,46.6-5.2s28.1-8.5,42.6-15.1v50c-13.2,6.3-26.9,10.9-41.1,13.9s-31.2,4.5-51,4.5   c-26.1,0-49.3-5-69.6-15.1c-20.3-10.1-36.2-25.3-47.5-45.8c-11.4-20.5-17.1-45.9-17.1-76.3c0-45.9,11.4-80.9,34.2-105   C1421.5,318.7,1451.4,306.7,1488.4,306.7z M1488.4,352.7c-16.8,0-30.5,5.4-40.9,16.1s-16.4,26.7-18.1,47.8h115.4   c-0.3-18.5-5-33.8-14.1-45.8C1521.7,358.7,1507.5,352.7,1488.4,352.7z"></path>		<path d="M1720.2,580l-102-268.4h65.9l53.5,155c3.3,9.6,6.4,20.1,9.2,31.7c2.8,11.6,4.5,21.3,5.2,29.2h2c1-8.2,3-18.1,5.9-29.5   s6.1-21.9,9.4-31.4l53.5-155h65.9l-102,268.4H1720.2z"></path>		<path d="M2036.7,306.7c36,0,64.5,10.7,85.4,32.2c21,21.5,31.4,51.3,31.4,89.6v31.7h-177.3c0.7,24.4,7.4,43.3,20.3,56.7   c12.9,13.4,30.7,20.1,53.5,20.1c17.2,0,32.7-1.7,46.6-5.2c13.9-3.5,28.1-8.5,42.6-15.1v50c-13.2,6.3-26.9,10.9-41.1,13.9   c-14.2,3-31.2,4.5-51,4.5c-26.1,0-49.3-5-69.6-15.1c-20.3-10.1-36.2-25.3-47.5-45.8c-11.4-20.5-17.1-45.9-17.1-76.3   c0-45.9,11.4-80.9,34.2-105C1969.8,318.7,1999.7,306.7,2036.7,306.7z M2036.7,352.7c-16.8,0-30.5,5.4-40.9,16.1   s-16.4,26.7-18.1,47.8h115.4c-0.3-18.5-5-33.8-14.1-45.8C2069.9,358.7,2055.8,352.7,2036.7,352.7z"></path>		<path d="M2360.1,306.7c30,0,53.6,7.8,70.6,23.3s25.5,40.6,25.5,75.3V580h-62.4V417.6c0-40.3-16.5-60.4-49.5-60.4   c-25.1,0-42.3,7.9-51.5,23.8c-9.2,15.8-13.9,38.5-13.9,67.9V580h-62.4V311.6h48l8.9,35.2h3.5c8.6-13.9,20.4-24,35.4-30.5   C2327.3,309.9,2343.2,306.7,2360.1,306.7z"></path>	</g>	<g>		<path class="st2" d="M2850.7,488.4c0,31.4-11.4,56.1-34.2,74.3s-54.3,27.2-94.6,27.2c-39,0-72-6.6-99.1-19.8v-59.4   c14.9,6.6,31.2,12.6,49,18.1c17.8,5.4,36,8.2,54.5,8.2c21.1,0,36.6-4.1,46.6-12.4c9.9-8.2,14.9-19.1,14.9-32.7   c0-14.9-6.3-26.6-18.8-35.2c-12.6-8.6-30.9-18-55-28.2c-14.5-6.3-28.4-13.7-41.6-22.3c-13.2-8.6-24.1-19.5-32.7-32.7   c-8.6-13.2-12.9-30-12.9-50.5c0-30.4,10.6-54.1,31.9-71.1c21.3-17,49.8-25.5,85.4-25.5c18.8,0,36.4,2,52.7,5.9   c16.3,4,32.8,9.6,49.3,16.8l-20.3,51c-14.9-6.3-29-11.2-42.3-14.9c-13.4-3.6-27.2-5.4-41.4-5.4c-17.2,0-30.2,3.9-39.1,11.6   c-8.9,7.8-13.4,17.8-13.4,30c0,9.9,2.5,18.2,7.4,24.8c5,6.6,12.6,12.7,23,18.3c10.4,5.6,23.8,12.1,40.4,19.3   c18.8,8.3,35,16.8,48.5,25.8c13.5,8.9,23.8,19.6,31,32.2C2847.2,454.4,2850.7,469.9,2850.7,488.4z"></path>		<path class="st2" d="M2974,298.2c0,10.6-0.4,20.9-1.2,31s-1.6,17.6-2.2,22.5h4c8.6-13.5,19.8-23.6,33.7-30.2s29.2-9.9,46.1-9.9   c30.4,0,54.1,7.8,71.3,23.3s25.8,40.6,25.8,75.3V585h-62.4V422.5c0-40.3-16.5-60.4-49.5-60.4c-25.1,0-42.3,7.9-51.5,23.8   c-9.2,15.8-13.9,38.5-13.9,67.9V585h-62.4V208.6h62.4v89.6H2974z"></path>		<path class="st2" d="M3469.3,450.3c0,44.6-11.6,79-34.7,103.3c-23.1,24.3-54.5,36.4-94.1,36.4c-24.4,0-46.2-5.4-65.4-16.3   c-19.2-10.9-34.2-26.7-45.1-47.5c-10.9-20.8-16.3-46.1-16.3-75.8c0-44.6,11.5-78.8,34.4-102.8c22.9-23.9,54.2-35.9,93.9-35.9   c24.8,0,46.7,5.4,65.9,16.1c19.1,10.7,34.2,26.4,45.1,47C3463.9,395.4,3469.3,420.6,3469.3,450.3z M3277.6,450.3   c0,28.4,5,50.4,15.1,65.9c10.1,15.5,26.3,23.3,48.8,23.3c22.4,0,38.7-7.8,48.8-23.3s15.1-37.5,15.1-65.9s-5-50.2-15.1-65.4   c-10.1-15.2-26.5-22.8-49.3-22.8c-22.1,0-38.2,7.6-48.3,22.8C3282.7,400.1,3277.6,421.9,3277.6,450.3z"></path>		<path class="st2" d="M3674.8,311.6c31.4,0,56.6,11.6,75.8,34.9c19.1,23.3,28.7,57.9,28.7,103.8s-9.8,80.7-29.5,104.3   c-19.6,23.6-45.2,35.4-76.5,35.4c-19.8,0-35.8-3.6-48-10.9c-12.2-7.3-22-15.7-29.2-25.3h-4c1,6.3,1.9,13.1,2.7,20.6   c0.8,7.4,1.2,14.3,1.2,20.6v109h-62.4V316.6h50.5l8.9,35.7h3c7.3-11.2,17.2-20.8,29.7-28.7   C3638.4,315.6,3654.7,311.6,3674.8,311.6z M3657,362.1c-22.1,0-37.7,6.6-46.8,19.8c-9.1,13.2-13.8,33.2-14.1,59.9v7.9   c0,28.7,4.4,50.8,13.1,66.1c8.7,15.4,25,23,48.8,23c19.5,0,33.9-8,43.3-24c9.4-16,14.1-37.9,14.1-65.6s-4.7-49.2-14.1-64.4   C3691.9,369.7,3677.1,362.1,3657,362.1z"></path>	</g></g></svg>