<svg width="800" height="800" viewBox="0 0 800 800" fill="none" xmlns="http://www.w3.org/2000/svg">
<g clip-path="url(#clip0_148_2)">
<path opacity="0.75" d="M404.226 800C625.14 800 804.226 620.914 804.226 400C804.226 179.086 625.14 0 404.226 0C183.312 0 4.22571 179.086 4.22571 400C4.22571 620.914 183.312 800 404.226 800Z" fill="#C9E2C5"/>
<path d="M531.926 458.4V359.1C531.926 286.9 474.626 228.1 404.226 228.1C333.826 228.1 276.526 286.9 276.526 359.1V458.3C276.526 467.5 269.326 474.9 260.426 474.9C251.526 474.9 244.326 467.5 244.326 458.3V359.1C244.326 315.4 261.026 274.2 291.326 243.2C321.626 212.1 361.826 195 404.326 195C446.826 195 487.026 212.1 517.326 243.2C547.626 274.3 564.326 315.5 564.326 359.1V458.3C564.326 467.5 557.026 474.9 548.226 474.9C539.126 475 531.926 467.6 531.926 458.4Z" fill="#508C46"/>
<path d="M674.226 380V695.1C603.026 760.3 508.326 800 404.226 800C300.126 800 205.426 760.3 134.226 695.1V380H674.226Z" fill="#67AD5C"/>
<path d="M164.225 290H234.625V380H164.225V290Z" fill="#508C46"/>
<path d="M583.826 290H654.226V380H583.826V290Z" fill="#508C46"/>
<path d="M612.326 333.9C612.226 320.2 625.226 303.7 646.926 290L401.626 290.1L160.226 290C181.626 303.6 195.026 320.1 194.926 333.9C194.826 355.8 168.326 370.7 134.226 380H674.226C639.426 370.7 612.526 355.8 612.326 333.9Z" fill="white"/>
<path d="M242.126 544.5C253.626 551.1 267.726 551.1 279.126 544.5C290.626 537.9 297.626 525.6 297.626 512.5C297.626 492 281.026 475.5 260.626 475.5C240.226 475.5 223.626 492.1 223.626 512.5C223.626 525.7 230.626 537.9 242.126 544.5Z" fill="white"/>
<path d="M529.326 544.5C540.826 551.1 554.926 551.1 566.326 544.5C577.826 537.9 584.826 525.6 584.826 512.5C584.826 492 568.226 475.5 547.826 475.5C527.426 475.5 510.826 492.1 510.826 512.5C510.726 525.7 517.826 538 529.326 544.5Z" fill="white"/>
<path d="M531.926 513.4V414.1C531.926 341.9 474.626 283.1 404.226 283.1C333.826 283.1 276.526 341.9 276.526 414.1V513.4C276.526 522.6 269.326 530 260.426 530C251.526 530 244.326 522.6 244.326 513.4V414.1C244.326 370.4 261.026 329.2 291.326 298.2C321.626 267.1 361.826 250 404.326 250C446.826 250 487.026 267.1 517.326 298.2C547.626 329.3 564.326 370.5 564.326 414.1V513.4C564.326 522.5 557.026 530 548.226 530C539.126 530 531.926 522.6 531.926 513.4Z" fill="#508C46"/>
</g>
<defs>
<clipPath id="clip0_148_2">
<rect width="800" height="800" fill="white"/>
</clipPath>
</defs>
</svg>
